<svg width="13" height="14" viewBox="0 0 13 14" fill="none" xmlns="http://www.w3.org/2000/svg">
<path d="M8.86482 1.33157C9.73983 0.456559 11.1585 0.456558 12.0335 1.33157C12.9085 2.20659 12.9085 3.62527 12.0335 4.50028L3.82497 12.7088C2.94995 13.5838 1.53128 13.5839 0.656261 12.7088C-0.218754 11.8338 -0.218753 10.4151 0.656261 9.54013L8.86482 1.33157Z" fill="#C4C4C4"/>
<path d="M4.03353 1.33157C3.15851 0.456559 1.73983 0.456558 0.864818 1.33157C-0.0101966 2.20659 -0.0101962 3.62527 0.864818 4.50028L9.07337 12.7088C9.94839 13.5838 11.3671 13.5839 12.2421 12.7088C13.1171 11.8338 13.1171 10.4151 12.2421 9.54013L4.03353 1.33157Z" fill="#C4C4C4"/>
</svg>
